<?xml version="1.0" encoding="utf-8"?>
<!-- Generator: Adobe Illustrator 26.1.0, SVG Export Plug-In . SVG Version: 6.00 Build 0)  -->
<svg version="1.1" id="a" xmlns="http://www.w3.org/2000/svg" xmlns:xlink="http://www.w3.org/1999/xlink" x="0px" y="0px"
	 viewBox="0 0 320.9 79.9" style="enable-background:new 0 0 320.9 79.9;" xml:space="preserve">
<style type="text/css">
	.st0{fill:#C02A1B;}
</style>
<g>
	<path class="st0" d="M38.8,37.5l25.8,36.9H42.8L26.7,50.9l-6.4,8.6v15H1.8V8h18.5v27.2L40.4,7.9h21.3L38.8,37.5L38.8,37.5z"/>
	<path class="st0" d="M64.1,48.8V7.9h18.4v39.6c0,6.9,3.9,11.9,11.6,11.9s11.5-5,11.5-11.9V8h18.4v40.9c0,15.7-11.6,27.3-30,27.3
		C77.2,76,64.2,65.7,64.1,48.8L64.1,48.8z"/>
	<path class="st0" d="M123.8,79.9l32-79.9h19.5l-31.9,79.9H123.8z"/>
	<path class="st0" d="M178.6,74.4V8h16.2l27.8,36.7V8H241v66.5h-16.1L197,37.6v36.9L178.6,74.4L178.6,74.4z"/>
	<path class="st0" d="M246.1,41.1c0-19.4,16.2-34.9,36.5-34.9S319,21.7,319,41.1s-16.4,35-36.5,35C262.3,76,246.1,60.4,246.1,41.1z
		 M300.5,41.2c0-10.7-8-18-18-18s-18,7.4-18,18s8,18,18,18S300.5,51.8,300.5,41.2z"/>
</g>
</svg>
